<svg xmlns="http://www.w3.org/2000/svg" width="320.757" height="310.412" viewBox="0 0 84.867 82.13"><path d="M36.49 89.452h79.827v77.09H36.49z" style="fill:#ff7f6b;fill-opacity:1;fill-rule:nonzero;stroke:#ff7f6b;stroke-width:5.0399;stroke-linecap:square;stroke-miterlimit:3.575;stroke-dasharray:none;stroke-opacity:1" transform="translate(-33.97 -86.932)"/><path d="M14.08 18.42c9.613-1.483 17.361-.756 25.485 3.306-1.255 6.631.125 15.548 5.906 18.438-3.024 9.206-8.102 13.708-17.053 17.064-10.598.68-21.886-9.302-32.598-4.711.284-2.557 4.54-6.772 6.785-8.119-4.146-1.617-7.428-.964-11.367.948.753-4.747 5.91-8.403 7.75-9.621-1.864-2.389-5.494-3.589-8.418-4.076a15.9 15.9 0 0 1 3.891-4.104c2.812-2.059 2.434-1.815 4.394-3.079-3.957-7.55-3.585-15.885.03-21.91 6.864 1.442 12.696 7.736 14.753 13.906" style="fill:#fff;fill-opacity:1;fill-rule:nonzero;stroke:#fff;stroke-width:3;stroke-linecap:square;stroke-linejoin:miter;stroke-miterlimit:3.575;stroke-dasharray:none;stroke-dashoffset:0;stroke-opacity:1;paint-order:normal" transform="translate(24.66 10.977)"/><path d="M19.863 16.179c2.452-4.448 6.321-8.801 11.15-10.41-.653 4.032-.09 7.903-.872 11.816" style="fill:#fff;fill-opacity:1;fill-rule:nonzero;stroke:#fff;stroke-width:3;stroke-linecap:square;stroke-linejoin:miter;stroke-miterlimit:3.575;stroke-dasharray:none;stroke-dashoffset:0;stroke-opacity:1;paint-order:normal" transform="translate(24.66 10.977)"/><path d="M46.282 42.277c-.89-.438-2.389-.58-3.11-1.54" style="fill:#ff7f6b;fill-opacity:1;fill-rule:nonzero;stroke:#ff7f6b;stroke-width:3;stroke-linecap:round;stroke-linejoin:miter;stroke-miterlimit:3.575;stroke-dasharray:none;stroke-dashoffset:0;stroke-opacity:1;paint-order:normal" transform="translate(24.66 10.977)"/><path d="M34.502 30.676c-2.546-.289-7.922 1.35-10.182 4.154" style="fill:#ff7f6b;fill-opacity:1;fill-rule:nonzero;stroke:#ff7f6b;stroke-width:3;stroke-linecap:butt;stroke-linejoin:miter;stroke-miterlimit:3.575;stroke-dasharray:none;stroke-opacity:1" transform="translate(24.66 10.977)"/><path d="M11.132 17.873c-.805-2.697-2.891-3.428-5.212-4.677-.157 2.11-.455 4.624.385 6.486" style="fill:none;stroke:#ff7f6b;stroke-width:3;stroke-linecap:butt;stroke-linejoin:miter;stroke-miterlimit:4;stroke-dasharray:none;stroke-opacity:1" transform="translate(24.66 10.977)"/></svg>